<svg width="275" height="57" viewBox="0 0 275 57" fill="none" xmlns="http://www.w3.org/2000/svg">
<path d="M68.04 19.488C69.064 19.488 69.976 19.728 70.776 20.208C71.576 20.672 72.2 21.32 72.648 22.152C73.096 22.968 73.32 23.888 73.32 24.912V25.224C73.32 26.248 73.096 27.176 72.648 28.008C72.2 28.84 71.576 29.496 70.776 29.976C69.976 30.44 69.064 30.672 68.04 30.672H64.08V36H58.776V19.488H68.04ZM64.08 26.808H66.264C66.824 26.808 67.24 26.664 67.512 26.376C67.8 26.088 67.944 25.696 67.944 25.2V25.008C67.944 24.496 67.8 24.104 67.512 23.832C67.24 23.544 66.824 23.4 66.264 23.4H64.08V26.808ZM83.8243 19.2C86.6723 19.2 88.8723 19.928 90.4243 21.384C91.9763 22.84 92.7523 24.96 92.7523 27.744C92.7523 30.528 91.9763 32.648 90.4243 34.104C88.8723 35.56 86.6723 36.288 83.8243 36.288C80.9763 36.288 78.7763 35.568 77.2243 34.128C75.6883 32.672 74.9203 30.544 74.9203 27.744C74.9203 24.944 75.6883 22.824 77.2243 21.384C78.7763 19.928 80.9763 19.2 83.8243 19.2ZM83.8243 23.16C82.6883 23.16 81.8243 23.504 81.2323 24.192C80.6403 24.88 80.3443 25.808 80.3443 26.976V28.512C80.3443 29.68 80.6403 30.608 81.2323 31.296C81.8243 31.984 82.6883 32.328 83.8243 32.328C84.9603 32.328 85.8243 31.984 86.4163 31.296C87.0243 30.608 87.3283 29.68 87.3283 28.512V26.976C87.3283 25.808 87.0243 24.88 86.4163 24.192C85.8243 23.504 84.9603 23.16 83.8243 23.16ZM110.801 24.552C110.801 25.56 110.529 26.472 109.985 27.288C109.441 28.104 108.649 28.704 107.609 29.088L111.281 36H105.329L102.401 29.976H100.433V36H95.1285V19.488H105.233C106.417 19.488 107.425 19.72 108.257 20.184C109.105 20.632 109.737 21.248 110.153 22.032C110.585 22.8 110.801 23.64 110.801 24.552ZM105.401 24.768C105.401 24.336 105.257 23.976 104.969 23.688C104.681 23.4 104.329 23.256 103.913 23.256H100.433V26.304H103.913C104.329 26.304 104.681 26.16 104.969 25.872C105.257 25.568 105.401 25.2 105.401 24.768ZM122.621 23.712V36H117.317V23.712H111.893V19.488H128.021V23.712H122.621ZM139.381 36L138.685 33.672H132.901L132.205 36H126.781L132.805 19.488H138.973L144.997 36H139.381ZM134.005 29.976H137.581L135.853 24.096H135.757L134.005 29.976ZM146.517 19.488H151.821V31.776H160.293V36H146.517V19.488Z" fill="white"/>
<path d="M169.712 19.2C171.824 19.2 173.56 19.632 174.92 20.496C176.28 21.344 176.976 22.608 177.008 24.288V24.576H172.04V24.48C172.04 24 171.864 23.6 171.512 23.28C171.16 22.96 170.624 22.8 169.904 22.8C169.2 22.8 168.656 22.904 168.272 23.112C167.904 23.32 167.72 23.576 167.72 23.88C167.72 24.312 167.976 24.632 168.488 24.84C169 25.048 169.824 25.264 170.96 25.488C172.288 25.76 173.376 26.048 174.224 26.352C175.088 26.64 175.84 27.12 176.48 27.792C177.12 28.464 177.448 29.376 177.464 30.528C177.464 32.48 176.8 33.928 175.472 34.872C174.16 35.816 172.4 36.288 170.192 36.288C167.616 36.288 165.608 35.856 164.168 34.992C162.744 34.128 162.032 32.6 162.032 30.408H167.048C167.048 31.24 167.264 31.8 167.696 32.088C168.128 32.36 168.8 32.496 169.712 32.496C170.384 32.496 170.936 32.424 171.368 32.28C171.816 32.136 172.04 31.84 172.04 31.392C172.04 30.992 171.792 30.696 171.296 30.504C170.816 30.296 170.024 30.08 168.92 29.856C167.576 29.568 166.464 29.272 165.584 28.968C164.704 28.648 163.936 28.128 163.28 27.408C162.624 26.688 162.296 25.712 162.296 24.48C162.296 22.672 162.992 21.344 164.384 20.496C165.792 19.632 167.568 19.2 169.712 19.2ZM187.824 19.2C190.672 19.2 192.872 19.928 194.424 21.384C195.976 22.84 196.752 24.96 196.752 27.744C196.752 30.528 195.976 32.648 194.424 34.104C192.872 35.56 190.672 36.288 187.824 36.288C184.976 36.288 182.776 35.568 181.224 34.128C179.688 32.672 178.92 30.544 178.92 27.744C178.92 24.944 179.688 22.824 181.224 21.384C182.776 19.928 184.976 19.2 187.824 19.2ZM187.824 23.16C186.688 23.16 185.824 23.504 185.232 24.192C184.64 24.88 184.344 25.808 184.344 26.976V28.512C184.344 29.68 184.64 30.608 185.232 31.296C185.824 31.984 186.688 32.328 187.824 32.328C188.96 32.328 189.824 31.984 190.416 31.296C191.024 30.608 191.328 29.68 191.328 28.512V26.976C191.328 25.808 191.024 24.88 190.416 24.192C189.824 23.504 188.96 23.16 187.824 23.16ZM210.937 36L204.001 27.984V36H199.129V19.488H203.761L210.697 27.624V19.488H215.569V36H210.937ZM226.849 19.2C229.697 19.2 231.897 19.928 233.449 21.384C235.001 22.84 235.777 24.96 235.777 27.744C235.777 30.528 235.001 32.648 233.449 34.104C231.897 35.56 229.697 36.288 226.849 36.288C224.001 36.288 221.801 35.568 220.249 34.128C218.713 32.672 217.945 30.544 217.945 27.744C217.945 24.944 218.713 22.824 220.249 21.384C221.801 19.928 224.001 19.2 226.849 19.2ZM226.849 23.16C225.713 23.16 224.849 23.504 224.257 24.192C223.665 24.88 223.369 25.808 223.369 26.976V28.512C223.369 29.68 223.665 30.608 224.257 31.296C224.849 31.984 225.713 32.328 226.849 32.328C227.985 32.328 228.849 31.984 229.441 31.296C230.049 30.608 230.353 29.68 230.353 28.512V26.976C230.353 25.808 230.049 24.88 229.441 24.192C228.849 23.504 227.985 23.16 226.849 23.16ZM253.825 24.552C253.825 25.56 253.553 26.472 253.009 27.288C252.465 28.104 251.673 28.704 250.633 29.088L254.305 36H248.353L245.425 29.976H243.457V36H238.153V19.488H248.257C249.441 19.488 250.449 19.72 251.281 20.184C252.129 20.632 252.761 21.248 253.177 22.032C253.609 22.8 253.825 23.64 253.825 24.552ZM248.425 24.768C248.425 24.336 248.281 23.976 247.993 23.688C247.705 23.4 247.353 23.256 246.937 23.256H243.457V26.304H246.937C247.353 26.304 247.705 26.16 247.993 25.872C248.281 25.568 248.425 25.2 248.425 24.768ZM264.162 19.2C267.01 19.2 269.21 19.928 270.762 21.384C272.314 22.84 273.09 24.96 273.09 27.744C273.09 30.528 272.314 32.648 270.762 34.104C269.21 35.56 267.01 36.288 264.162 36.288C261.314 36.288 259.114 35.568 257.562 34.128C256.026 32.672 255.258 30.544 255.258 27.744C255.258 24.944 256.026 22.824 257.562 21.384C259.114 19.928 261.314 19.2 264.162 19.2ZM264.162 23.16C263.026 23.16 262.162 23.504 261.57 24.192C260.978 24.88 260.682 25.808 260.682 26.976V28.512C260.682 29.68 260.978 30.608 261.57 31.296C262.162 31.984 263.026 32.328 264.162 32.328C265.298 32.328 266.162 31.984 266.754 31.296C267.362 30.608 267.666 29.68 267.666 28.512V26.976C267.666 25.808 267.362 24.88 266.754 24.192C266.162 23.504 265.298 23.16 264.162 23.16Z" fill="#FF5500"/>
<g clip-path="url(#clip0_328_719)">
<path d="M4.63965 41.3581L27.7615 10.1361L42.8571 7.85339L45.3607 23.1698L22.607 54.1708L6.99602 56.3799L4.63965 41.3581Z" fill="#FF5500"/>
<path d="M8.91949 46.0656C4.74503 42.7748 1.97556 39.3632 0.999876 36.9531C0.479265 35.6666 0.231846 34.4119 0.231846 34.4119C-0.121609 32.6174 0.00578186 31.2352 0.111819 30.5209C0.331992 29.0349 0.817994 28.0121 0.997667 27.6572C1.77674 26.1197 2.78851 25.331 4.66772 23.9017C6.259 22.6911 7.65147 21.6322 9.86204 20.7133C11.0454 20.2214 12.1234 19.9114 13.7972 18.9843C14.8752 18.3871 15.4754 17.9357 15.9643 17.4931C16.3966 17.1014 17.0828 16.4077 17.6955 15.3974C18.275 14.4416 18.4996 13.6795 18.898 12.3459C20.194 8.00284 20.4952 7.09563 20.9598 5.98961C21.3987 4.94544 21.8118 4.1325 22.437 3.28273C23.3795 2.00293 24.2308 1.41972 24.4634 1.26509C24.8913 0.981585 25.3139 0.790866 26.1586 0.410165C26.7175 0.158327 27.0481 0.0375634 27.5172 0.00958148C27.7845 -0.00661858 28.1703 -0.0250277 28.6526 0.148018C29.0348 0.284982 29.3544 0.383656 29.8139 0.727539C30.2314 1.04049 30.3735 1.28791 30.4774 1.50146C30.5149 1.57878 30.6165 1.81221 30.4619 2.47567C30.3573 2.92412 30.213 3.2356 30.1511 3.37183C29.9096 3.90054 29.7108 4.45208 29.4825 4.98815C29.0378 6.03527 28.9685 6.21199 28.8816 6.5139C28.7115 7.10152 28.6733 7.47339 28.6644 7.76057C28.6541 8.07721 28.6467 8.39458 28.7631 8.81947C28.8706 9.21269 29.0341 9.51386 29.2248 9.86584C29.2697 9.94832 29.4376 10.2546 29.7071 10.6464C30.0797 11.1869 30.4184 11.5587 30.5318 11.6802C30.7874 11.9557 30.9685 12.1486 31.2631 12.3636C31.4818 12.5234 31.7019 12.6817 32.0149 12.7804C32.3381 12.8827 32.5863 12.8614 32.8551 12.84C33.0701 12.8231 33.3794 12.7752 33.7159 12.6331" fill="white"/>
<path d="M14.5769 50.1208C16.4134 51.6539 19.0886 53.5044 22.4847 54.7187C23.8478 55.2061 25.5605 55.8026 27.7115 55.779C28.3852 55.7717 30.1267 55.6921 31.947 54.8372C32.3587 54.6443 33.5582 54.0427 34.6996 52.7953C35.0722 52.3873 36.2297 51.0471 37.2643 46.9529C38.0721 43.7564 38.7444 41.0988 38.631 38.6725C38.6141 38.3073 38.55 37.3161 38.9985 36.2697C39.0758 36.0886 39.3932 35.3846 40.279 34.5437C40.9675 33.8905 41.5507 33.5805 42.695 32.9561C46.0161 31.1417 46.4402 30.8339 46.7384 30.6041C47.1022 30.3236 47.9409 29.6483 48.7649 28.5865C49.5167 27.6174 49.7259 27.0114 49.8172 26.6911C50.0786 25.7743 49.9917 25.0416 49.9622 24.8266C49.9011 24.3863 49.8047 23.7515 49.3135 23.0785C49.1044 22.792 48.8201 22.4017 48.354 22.2258C48.1456 22.147 47.7907 22.0696 47.016 22.3605C46.3356 22.616 46.1412 22.8524 45.4351 23.3001C44.8681 23.6595 44.3165 24.0092 43.4911 24.2522C43.1104 24.3642 42.5382 24.5269 41.723 24.4901C41.332 24.4724 40.8151 24.4488 40.1781 24.1889C39.7916 24.0313 39.4035 23.7471 38.6274 23.1801C37.919 22.6624 37.7098 22.44 37.5537 22.2434C37.3461 21.9805 37.2202 21.7434 37.0714 21.4629C36.8439 21.0351 36.6996 20.6706 36.6097 20.4165" fill="white"/>
</g>
<defs>
<clipPath id="clip0_328_719">
<rect width="50" height="56.3799" fill="white"/>
</clipPath>
</defs>
</svg>
